<svg width="16" height="16" viewBox="0 0 16 16" fill="none" xmlns="http://www.w3.org/2000/svg">
<path fill-rule="evenodd" clip-rule="evenodd" d="M8 1C6.20507 1 4.75 2.45507 4.75 4.25C4.75 6.04493 6.20507 7.5 8 7.5C9.79493 7.5 11.25 6.04493 11.25 4.25C11.25 2.45507 9.79493 1 8 1ZM8.5 8.4709C10.6116 8.22343 12.25 6.42805 12.25 4.25C12.25 1.90279 10.3472 0 8 0C5.65279 0 3.75 1.90279 3.75 4.25C3.75 6.42805 5.38842 8.22343 7.5 8.4709L7.5 12.5C7.5 12.7761 7.72386 13 8 13C8.27614 13 8.5 12.7761 8.5 12.5V8.4709ZM4.73936 9.39739C4.79603 9.66766 4.62287 9.93269 4.35261 9.98936C3.16154 10.2391 2.30397 10.6146 1.75581 11.0408C1.21484 11.4613 1 11.9071 1 12.3355C1 12.6006 1.12518 12.8967 1.44251 13.2133C1.76177 13.5318 2.24901 13.8416 2.89107 14.1125C4.17318 14.6534 5.97914 15 8 15C10.0209 15 11.8268 14.6534 13.1089 14.1125C13.751 13.8416 14.2382 13.5318 14.5575 13.2133C14.8748 12.8967 15 12.6006 15 12.3355C15 11.9071 14.7852 11.4613 14.2442 11.0408C13.696 10.6146 12.8385 10.2391 11.6474 9.98936C11.3771 9.93269 11.204 9.66766 11.2606 9.39739C11.3173 9.12713 11.5823 8.95397 11.8526 9.01064C13.1311 9.27871 14.1485 9.69973 14.858 10.2513C15.5746 10.8084 16 11.5215 16 12.3355C16 12.9443 15.7054 13.4806 15.2637 13.9213C14.824 14.36 14.2128 14.7321 13.4977 15.0338C12.0653 15.6382 10.1213 16 8 16C5.87872 16 3.93469 15.6382 2.50233 15.0338C1.78715 14.7321 1.17605 14.36 0.736267 13.9213C0.294552 13.4806 0 12.9443 0 12.3355C0 11.5215 0.425394 10.8084 1.14204 10.2513C1.8515 9.69973 2.86893 9.27871 4.14739 9.01064C4.41766 8.95397 4.68269 9.12713 4.73936 9.39739Z" fill="black"/>
</svg>
