<svg width="64" height="64" viewBox="0 0 64 64" fill="none" xmlns="http://www.w3.org/2000/svg">
<g filter="url(#filter0_f_388_1535)">
<path d="M48.2958 48.8279C50.8374 48.028 55.4644 45.8423 57.1274 44.2247C59.0449 42.5314 55.0676 40.637 54.5957 40.3516C54.1237 40.0661 30.9325 28.0763 26.8875 26.2208C22.8425 24.3652 10.0338 28.2797 6.93225 30.0746C4.40413 31.5377 6.19067 32.5725 6.52775 32.858C6.86483 33.1434 26.1832 44.3674 33.1271 47.793C38.3857 50.3873 43.307 50.398 48.2958 48.8279Z" fill="black" fill-opacity="0.2"/>
</g>
<path fill-rule="evenodd" clip-rule="evenodd" d="M32.474 43.1363C32.1123 42.6373 31.7851 42.0626 31.5135 41.4282C31.2631 40.843 31.0805 40.2548 30.9635 39.6849L29.5633 36.4854L32.1289 35.2451L32.129 35.2453C32.1452 35.237 32.1617 35.229 32.1782 35.2213C33.7065 34.5063 35.8866 36.1261 37.0477 38.8391C38.2089 41.5521 37.9113 44.3311 36.3831 45.046C36.3729 45.0507 36.3628 45.0554 36.3526 45.0599L33.8467 46.273L32.474 43.1363Z" fill="black"/>
<ellipse cx="3.07444" cy="5.30686" rx="3.07444" ry="5.30686" transform="matrix(-0.900039 0.421056 0.395865 0.924935 32.4092 35.1641)" fill="black"/>
<g filter="url(#filter1_i_388_1535)">
<ellipse cx="2.30594" cy="3.98033" rx="2.30594" ry="3.98033" transform="matrix(-0.900039 0.421056 0.395865 0.924935 32.1553 36.7227)" fill="url(#paint0_linear_388_1535)"/>
</g>
<g filter="url(#filter2_di_388_1535)">
<path fill-rule="evenodd" clip-rule="evenodd" d="M31.6831 38.4721C32.0326 38.6734 32.379 38.9867 32.6897 39.3879L32.0275 40.5871C31.9198 40.4548 31.8022 40.3494 31.6831 40.2773L31.6831 38.4721ZM31.6831 42.5459C31.8506 42.6314 32.0179 42.6494 32.1614 42.5822C32.177 42.5749 32.192 42.5668 32.2064 42.5578L33.1751 44.3119C33.1097 44.3623 33.0394 44.4054 32.9644 44.4405C32.5806 44.62 32.1307 44.5635 31.6831 44.3213L31.6831 42.5459ZM31.6133 44.282L31.6133 42.5063C31.4838 42.4257 31.3563 42.3059 31.2417 42.1552L30.5902 43.3349C30.9046 43.7496 31.2571 44.0738 31.6133 44.282ZM31.6133 40.2388L31.6133 38.4334C31.1702 38.1974 30.7256 38.1437 30.3456 38.3215C30.2392 38.3713 30.1423 38.4371 30.0552 38.5172L31.0313 40.2847C31.0654 40.2531 31.1034 40.2272 31.1451 40.2076C31.2858 40.1418 31.4493 40.1577 31.6133 40.2388ZM29.9303 42.1879C30.1033 42.5921 30.3127 42.9574 30.5442 43.2731L31.1961 42.0927C31.1166 41.9788 31.0446 41.8496 30.984 41.708C30.9686 41.6721 30.9543 41.6361 30.941 41.6001L29.821 41.9139C29.8548 42.0052 29.8912 42.0966 29.9303 42.1879ZM32.0744 40.6472L32.7362 39.4489C32.9795 39.7736 33.1994 40.1527 33.3798 40.5741C33.4142 40.6547 33.4466 40.7353 33.477 40.8159L32.3439 41.1333C32.3371 41.1161 32.33 41.099 32.3226 41.0818C32.253 40.9191 32.1682 40.7728 32.0744 40.6472ZM29.7967 41.8469C29.5845 41.2509 29.4842 40.6609 29.4896 40.1351L30.8129 40.9339C30.8137 41.1195 30.8479 41.3247 30.9174 41.5329L29.7967 41.8469ZM32.3694 41.2C32.4535 41.4313 32.4941 41.6607 32.4937 41.8657L33.8198 42.6662C33.831 42.1211 33.7273 41.5046 33.5017 40.8828L32.3694 41.2ZM33.8173 42.7474L32.4913 41.947C32.4771 42.1939 32.3995 42.3981 32.2634 42.5158L33.2303 44.2667C33.5895 43.9541 33.7895 43.407 33.8173 42.7474ZM29.4913 40.0535L30.8148 40.8523C30.8255 40.6418 30.8818 40.4617 30.981 40.3387L30.0031 38.5679C29.6855 38.8957 29.5112 39.4253 29.4913 40.0535Z" fill="#4C4C4C"/>
</g>
<path fill-rule="evenodd" clip-rule="evenodd" d="M29.5584 36.4288L32.124 35.1885L32.1245 35.1895C32.1425 35.1803 32.1608 35.1714 32.1792 35.1628C33.7074 34.4478 35.8876 36.0676 37.0487 38.7806C38.2098 41.4936 37.9122 44.2725 36.384 44.9875C36.3673 44.9953 36.3505 45.0029 36.3336 45.0101L33.8418 46.2164L32.458 43.0543C32.1031 42.5608 31.7818 41.9942 31.5145 41.3697C31.2683 40.7945 31.0877 40.2163 30.9705 39.6554L29.5584 36.4288Z" fill="black"/>
<path d="M28.9401 42.5988C30.1003 45.3097 32.2798 46.9277 33.808 46.2128C35.3362 45.4978 35.6346 42.7206 34.4743 40.0098C33.3141 37.2989 31.0691 35.5349 29.5408 36.2498C28.0126 36.9648 27.7799 39.8879 28.9401 42.5988Z" fill="black"/>
<g filter="url(#filter3_i_388_1535)">
<ellipse cx="2.14448" cy="3.86717" rx="2.14448" ry="3.86717" transform="matrix(-0.903008 0.434866 0.380321 0.923314 32.1426 36.8701)" fill="url(#paint1_linear_388_1535)"/>
</g>
<g filter="url(#filter4_di_388_1535)">
<path fill-rule="evenodd" clip-rule="evenodd" d="M30.2452 42.0679C30.845 43.524 31.9701 44.3976 32.7615 44.0236L32.1975 42.6807C31.8138 42.848 31.2778 42.4327 30.9833 41.74L30.2416 42.0591C30.2428 42.062 30.244 42.065 30.2452 42.0679ZM30.1648 41.8603C29.6692 40.4948 29.8295 39.1481 30.5488 38.7554L31.1097 40.0909C30.7782 40.285 30.6972 40.9012 30.9081 41.5405L30.1648 41.8603ZM32.3348 40.9265C32.0745 40.3692 31.658 40.0121 31.3117 40.0307L30.7432 38.6771C31.5063 38.4696 32.5083 39.2859 33.0783 40.6067L32.3348 40.9265ZM32.4168 41.1232L33.1587 40.8039C33.6609 42.1114 33.5603 43.4206 32.9416 43.9113L32.37 42.5503C32.6045 42.2746 32.6302 41.7012 32.4168 41.1232Z" fill="#474747"/>
</g>
<path fill-rule="evenodd" clip-rule="evenodd" d="M10.2811 26.3904L12.5419 25.781L12.5421 25.7822C12.5564 25.778 12.5708 25.7741 12.5853 25.7704C13.9285 25.4268 15.4687 27.0809 16.0252 29.4649C16.5818 31.849 15.9441 34.0602 14.6008 34.4038C14.5838 34.4082 14.5667 34.4122 14.5495 34.416L12.3658 35.0059L11.6982 32.2471C11.4753 31.7853 11.2912 31.2673 11.1609 30.7093C11.0407 30.1946 10.9762 29.688 10.9625 29.2065L10.2811 26.3904Z" fill="black"/>
<ellipse cx="2.54665" cy="4.36947" rx="2.54665" ry="4.36947" transform="matrix(-0.955049 0.244308 0.230467 0.987154 12.7764 25.7549)" fill="black"/>
<g filter="url(#filter5_i_388_1535)">
<ellipse cx="1.91008" cy="3.27725" rx="1.91008" ry="3.27725" transform="matrix(-0.955049 0.244308 0.230467 0.987154 12.3486 26.9786)" fill="url(#paint2_linear_388_1535)"/>
</g>
<g filter="url(#filter6_di_388_1535)">
<path fill-rule="evenodd" clip-rule="evenodd" d="M11.7142 28.3193C11.9706 28.5383 12.2083 28.8488 12.404 29.2255L11.693 30.0996C11.6238 29.9748 11.5427 29.8705 11.4556 29.7935L11.7142 28.3193ZM11.1323 31.6367C11.2568 31.7335 11.391 31.7748 11.518 31.7423C11.5327 31.7385 11.547 31.7339 11.5609 31.7283L12.0942 33.2931C12.0335 33.3241 11.9699 33.3485 11.9034 33.3654C11.5664 33.4517 11.2095 33.3362 10.8807 33.0707L11.1323 31.6367ZM10.8298 33.0282L11.0815 31.5937C10.9883 31.508 10.9023 31.3912 10.831 31.2514L10.136 32.1059C10.332 32.4891 10.5712 32.8051 10.8298 33.0282ZM11.4045 29.7518L11.6632 28.2771C11.3366 28.0159 10.9826 27.9029 10.6481 27.9884C10.555 28.0122 10.4673 28.0504 10.3855 28.1016L10.9299 29.6987C10.9613 29.6792 10.995 29.6646 11.0308 29.6554C11.1537 29.624 11.2835 29.6617 11.4045 29.7518ZM9.75979 31.0647C9.84342 31.4229 9.96272 31.7547 10.1074 32.0488L10.803 31.1936C10.7549 31.0891 10.715 30.9733 10.6861 30.8494C10.6782 30.8156 10.6713 30.782 10.6654 30.7486L9.7109 30.8297C9.72513 30.9076 9.74142 30.986 9.75979 31.0647ZM11.7225 30.1556L12.4329 29.2822C12.5826 29.582 12.706 29.9217 12.7917 30.2891C12.8086 30.3613 12.8237 30.4333 12.8371 30.5049L11.8713 30.5869C11.8686 30.5741 11.8658 30.5612 11.8628 30.5483C11.8293 30.4049 11.781 30.2724 11.7225 30.1556ZM9.70059 30.7713C9.61279 30.255 9.61479 29.7608 9.69328 29.3347L10.6577 30.1919C10.6319 30.3414 10.6301 30.5118 10.6559 30.6901L9.70059 30.7713ZM11.8828 30.6452C11.9191 30.8476 11.9199 31.0419 11.8904 31.2096L12.85 32.0625C12.9376 31.6215 12.9419 31.1041 12.8476 30.5633L11.8828 30.6452ZM12.8362 32.1281L11.8769 31.2755C11.8307 31.4735 11.7393 31.6274 11.6129 31.7027L12.1453 33.2649C12.4798 33.0671 12.7193 32.6563 12.8362 32.1281ZM9.70623 29.2684L10.671 30.1259C10.7101 29.956 10.7823 29.8182 10.8813 29.7342L10.336 28.1346C10.0296 28.3521 9.81161 28.7578 9.70623 29.2684Z" fill="#4C4C4C"/>
</g>
<path fill-rule="evenodd" clip-rule="evenodd" d="M10.2802 26.4483L12.541 25.8389L12.5412 25.8399C12.5543 25.8362 12.5674 25.8326 12.5805 25.8293C13.9238 25.4856 15.4639 27.1397 16.0205 29.5238C16.5771 31.9079 15.9393 34.1191 14.5961 34.4627C14.5795 34.4669 14.5629 34.4709 14.5463 34.4745L12.3649 35.0638L11.7017 32.323C11.4751 31.857 11.288 31.333 11.1561 30.7682C11.0344 30.2466 10.9698 29.7333 10.9572 29.246L10.2802 26.4483Z" fill="black"/>
<ellipse cx="2.57495" cy="4.41802" rx="2.57495" ry="4.41802" transform="matrix(-0.955049 0.244308 0.230467 0.987154 12.7871 25.7032)" fill="black"/>
<g filter="url(#filter7_i_388_1535)">
<g filter="url(#filter8_i_388_1535)">
<ellipse cx="1.79154" cy="3.16493" rx="1.79154" ry="3.16493" transform="matrix(-0.940837 0.298956 0.296419 0.967644 11.9464 27.3946)" fill="url(#paint3_linear_388_1535)"/>
</g>
<g filter="url(#filter9_di_388_1535)">
<path fill-rule="evenodd" clip-rule="evenodd" d="M9.88768 31.3383C10.2195 32.5987 11.0471 33.4707 11.7417 33.2946L11.4284 32.1342C11.0941 32.2057 10.7013 31.7919 10.5362 31.1929L9.88768 31.3383ZM9.84471 31.1599C9.58778 29.9855 9.86905 28.9241 10.5045 28.7115L10.8203 29.8814C10.5288 29.9913 10.3947 30.4715 10.4951 31.0141L9.84471 31.1599ZM11.7429 30.7343C11.589 30.2449 11.2832 29.8947 10.9943 29.8608L10.6746 28.6763C11.3304 28.6197 12.0706 29.4323 12.3936 30.5884L11.7429 30.7343ZM11.7904 30.9117L12.4393 30.7662C12.7045 31.8956 12.4722 32.9335 11.9043 33.2321L11.5871 32.057C11.8145 31.8723 11.9018 31.4122 11.7904 30.9117Z" fill="url(#paint4_linear_388_1535)"/>
</g>
</g>
<g filter="url(#filter10_ii_388_1535)">
<path fill-rule="evenodd" clip-rule="evenodd" d="M44.0854 25.0801C44.1892 25.1443 44.2817 25.1888 44.3633 25.2116C45.3159 25.4774 53.2954 30.0385 55.0351 31.8714C56.7281 33.6551 56.6342 34.7212 56.5906 35.2162C56.5843 35.2876 56.5791 35.3472 56.5804 35.3953C56.5871 35.6351 56.5854 36.1178 56.5832 36.7318C56.5819 37.0935 56.5804 37.5007 56.5804 37.9308L56.5804 39.3919C56.5771 39.501 56.5776 39.6124 56.5781 39.7261C56.5801 40.209 56.5823 40.734 56.2983 41.3092C55.9481 42.0183 54.2577 44.6182 46.0543 47.3041C43.2348 48.2272 39.9534 47.1751 37.8976 46.2768C37.0187 45.9308 36.3694 45.6023 36.0851 45.4531C36.0441 45.4316 36.0184 45.3929 36.0128 45.3473C35.9992 45.34 35.9867 45.3333 35.9752 45.3272C35.9206 44.5605 35.7392 43.4515 35.4721 42.3589C35.2001 41.3043 34.8496 40.2741 34.4666 39.5916C33.5245 37.9126 31.5192 35.8419 29.9424 36.4092C28.1529 37.053 28.2903 39.735 28.3247 40.3754C28.3348 40.5637 28.3558 40.6893 28.3765 40.8133L28.3765 40.8134C28.4064 40.9928 28.4358 41.169 28.4311 41.5272C28.4309 41.5413 28.4287 41.5547 28.4248 41.5671C28.4239 41.5973 28.4228 41.6293 28.4213 41.6631L28.3733 41.6372C28.3326 41.6659 28.2767 41.6728 28.2267 41.6462L14.1475 34.1399C14.1094 34.1196 14.0826 34.083 14.0761 34.0403C14.0259 33.7088 14.0268 33.3169 14.0279 32.8762C14.0307 31.7406 14.0342 30.281 13.1646 28.6953C12.3698 27.2459 11.2119 26.2865 10.1607 26.6303C9.10951 26.974 8.82361 28.1539 8.7663 28.811C8.71002 29.4563 8.74348 30.0485 8.76288 30.392V30.392L8.76289 30.3922C8.77069 30.5303 8.77622 30.6282 8.77271 30.6731C8.76048 30.8295 7.24693 29.4722 7.14963 28.9551C6.85351 27.3812 6.7918 25.9073 6.94719 24.3098C6.97367 24.0375 7.07279 23.3326 7.14425 23.0984C7.15011 23.0792 7.15285 23.0596 7.15149 23.0396C7.11424 22.4911 7.20683 21.6606 7.35356 21.3127C7.36644 21.2822 7.37899 21.25 7.39218 21.2163C7.54606 20.8222 7.78639 20.2068 9.63859 19.3435C12.2686 18.1178 19.4301 15.3892 19.7072 15.3254C20.3619 15.1747 21.2005 15.2394 21.8794 15.2919C22.2777 15.3226 22.6211 15.3491 22.84 15.3254C26.0122 14.9813 29.6911 15.4402 34.5505 18.0036C35.1825 18.2851 35.8072 18.6052 36.4127 18.9695C37.915 19.8733 39.1877 20.8313 40.2531 21.7188C41.5677 22.7586 42.5767 23.6954 43.2959 24.3631L43.2959 24.3631C43.6161 24.6604 43.8788 24.9043 44.0854 25.0801Z" fill="url(#paint5_linear_388_1535)"/>
</g>
<g filter="url(#filter11_ddi_388_1535)">
<path d="M31.3649 30.7561C29.5909 29.9909 28.6006 27.4636 25.8799 24.5136C25.8467 24.4776 25.8588 24.4187 25.9041 24.3997L36.9069 19.7946C36.9179 19.79 36.929 19.7882 36.9405 19.7905C37.0854 19.8196 38.1873 20.1251 41.3889 23.059C42.953 24.4922 43.2661 24.8655 44.0741 25.433C44.2019 25.5228 44.1797 25.7205 43.7102 26.1237C42.2135 27.4093 33.9658 31.8781 31.3649 30.7561Z" fill="url(#paint6_linear_388_1535)"/>
</g>
<g filter="url(#filter12_di_388_1535)">
<path d="M18.9645 21.1053C16.6525 20.347 16.3262 20.4174 14.5508 20.4175C13.4507 20.4175 11.6194 20.3536 11.4292 20.8689C11.2389 21.3842 13.35 23.0026 14.2239 23.5065C14.651 23.7528 29.3846 31.4475 28.9161 30.5381C28.3389 29.4177 25.6822 26.2171 24.7749 24.9102C23.2621 22.7313 21.2765 21.8636 18.9645 21.1053Z" fill="url(#paint7_linear_388_1535)"/>
</g>
<g filter="url(#filter13_di_388_1535)">
<path d="M13.7251 19.5838L23.4248 15.4668C23.4248 15.4668 23.2074 15.5467 22.0172 15.5284C21.6018 15.522 11.535 19.8346 11.4614 19.9019L13.7251 19.5838Z" fill="url(#paint8_linear_388_1535)"/>
</g>
<g filter="url(#filter14_f_388_1535)">
<path d="M35.8235 36.3071C32.0984 34.5025 30.0052 32.2372 27.7611 30.1666C34.444 32.2317 48.4319 36.7506 48.2127 37.0447C47.9388 37.4123 46.9341 37.8484 43.5959 38.0829C40.3094 38.3139 36.25 36.5137 35.8235 36.3071Z" fill="url(#paint9_linear_388_1535)" fill-opacity="0.21"/>
</g>
<g filter="url(#filter15_di_388_1535)">
<path d="M22.5736 30.8576C22.5736 30.83 22.5581 30.8044 22.5337 30.7921L21.1366 30.084C21.0904 30.0606 21.0373 30.094 21.0373 30.1464L21.0373 30.5107C21.0373 30.5384 21.0529 30.5639 21.0773 30.5763L22.4745 31.2815C22.5206 31.3048 22.5736 31.2714 22.5736 31.219L22.5736 30.8576Z" fill="#323232"/>
</g>
<g filter="url(#filter16_di_388_1535)">
<path d="M15.4437 27.5793C15.4437 27.5517 15.4282 27.5261 15.4038 27.5138L14.0067 26.8056C13.9605 26.7823 13.9075 26.8157 13.9075 26.8681L13.9075 27.2323C13.9075 27.2601 13.923 27.2856 13.9474 27.2979L15.3446 28.0032C15.3907 28.0265 15.4437 27.9931 15.4437 27.9407L15.4437 27.5793Z" fill="#323232"/>
</g>
<path d="M38.4619 29.544L29.7809 22.8643C28.7867 23.1486 26.5242 24.2184 26.093 24.3895C25.5345 24.6111 25.4416 24.7346 25.4416 24.7346C25.4416 24.9127 25.5277 24.9906 25.7989 25.269C26.1876 25.668 26.3522 25.8517 27.3152 27.1504C28.7021 29.0207 29.7574 30.761 30.7692 31.1785C31.5742 31.5107 32.8298 31.8013 34.6164 31.1785C36.2135 30.6219 37.1965 29.9929 38.4619 29.544Z" fill="#C4C4C4" fill-opacity="0.2"/>
<g opacity="0.17" filter="url(#filter17_f_388_1535)">
<path d="M53.6777 34.167C51.3644 36.0746 46.2181 38.8015 43.9203 39.2173" stroke="url(#paint10_linear_388_1535)" stroke-width="2.32753" stroke-linecap="round" stroke-linejoin="round"/>
</g>
<g filter="url(#filter18_dii_388_1535)">
<path d="M55.4497 34.8717C55.899 34.2394 55.7705 33.7345 55.7051 32.9362C55.7042 32.9257 55.7017 32.914 55.6985 32.904C55.4863 32.2437 56.3436 33.5508 56.4326 34.4531C56.4618 34.7493 56.4435 34.8993 56.4169 35.1727C56.4047 35.2977 56.1578 36.0613 56.1944 36.2262C56.2311 36.391 56.1506 37.5272 56.1561 37.6989C56.1617 37.8707 55.4737 39.1483 53.6663 40.3806C52.1648 41.4043 50.009 42.0762 49.788 42.1093C49.567 42.1424 49.3504 41.3697 49.19 41.327C48.7701 41.2153 47.5299 41.6901 47.0669 41.8114C46.5266 41.953 45.266 42.2793 43.8883 42.0949C42.1843 41.8667 41.9235 41.6648 40.3569 40.7757C39.2596 40.1529 38.4985 38.9101 38.2681 38.2999C38.2329 38.2067 38.3185 38.1248 38.4129 38.1564C39.4142 38.4908 41.7727 39.4145 44.4566 39.7014C48.2174 40.1033 51.1877 38.2407 51.6132 37.9729C53.4021 36.8474 54.3416 36.4313 55.4497 34.8717Z" fill="#211F1F"/>
</g>
<mask id="mask0_388_1535" style="mask-type:alpha" maskUnits="userSpaceOnUse" x="38" y="32" width="19" height="11">
<path d="M55.4555 34.8664C55.9535 34.1646 55.7898 33.3004 55.5958 32.6999C55.5515 32.5631 55.6945 32.4804 55.7775 32.5975C56.35 33.4047 56.5689 34.1266 56.6212 34.4826C56.6506 34.7788 56.6437 34.9669 56.6172 35.2403C56.605 35.3654 56.1643 36.0556 56.201 36.2204C56.2377 36.3852 56.1579 37.5215 56.1636 37.6932C56.1692 37.8649 55.482 39.1431 53.6753 40.3766C52.1745 41.4013 50.0191 42.0747 49.7981 42.108C49.5771 42.1412 49.3601 41.3687 49.1996 41.3261C48.7797 41.2146 47.5397 41.6903 47.0768 41.812C46.5367 41.9539 45.2763 42.2812 43.8985 42.0976C42.1943 41.8706 41.9334 41.6689 40.3663 40.7809C39.2686 40.1588 38.5068 38.9166 38.2761 38.3065C38.2408 38.2133 38.3263 38.1314 38.4207 38.1628C39.4222 38.4965 41.7812 39.4187 44.4654 39.7037C48.2263 40.103 51.1955 38.2384 51.6209 37.9703C53.409 36.8436 54.3483 36.4267 55.4555 34.8664Z" fill="#999999"/>
</mask>
<g mask="url(#mask0_388_1535)">
<g filter="url(#filter19_d_388_1535)">
<path d="M40.9381 38.6934L46.1178 38.7748C46.1215 38.7848 46.1259 38.797 46.1306 38.8114C46.1452 38.8555 46.1637 38.9192 46.1789 38.9966C46.2095 39.1519 46.2265 39.3603 46.1747 39.5771C46.1233 39.7929 46.0035 40.0187 45.7573 40.2108C45.5103 40.4035 45.133 40.5647 44.5633 40.6444C44.223 40.692 43.754 40.6901 43.2725 40.5948C42.7908 40.4996 42.3002 40.3117 41.9133 39.9902C41.7023 39.8148 41.4472 39.4728 41.2425 39.1698C41.1408 39.0192 41.0525 38.8797 40.9897 38.7779C40.9699 38.7457 40.9525 38.7173 40.9381 38.6934Z" stroke="white" stroke-opacity="0.5" stroke-width="0.104946"/>
</g>
<g filter="url(#filter20_d_388_1535)">
<path d="M54.5854 34.9141L55.7229 33.1172C55.7362 33.1387 55.7524 33.1661 55.7703 33.199C55.8184 33.2874 55.8784 33.4147 55.9259 33.5702C56.0207 33.881 56.0649 34.3026 55.865 34.7512C55.8061 34.8833 55.7193 34.9786 55.6229 35.0192C55.5293 35.0586 55.4207 35.0491 55.307 34.9595C55.2503 34.9148 55.1675 34.8943 55.0831 34.8855C54.997 34.8765 54.9016 34.879 54.8136 34.886C54.7264 34.8929 54.6452 34.9043 54.5854 34.9141Z" stroke="white" stroke-opacity="0.5" stroke-width="0.0874549"/>
</g>
</g>
<defs>
<filter id="filter0_f_388_1535" x="4.6174" y="24.7501" width="54.0123" height="26.1301" filterUnits="userSpaceOnUse" color-interpolation-filters="sRGB">
<feFlood flood-opacity="0" result="BackgroundImageFix"/>
<feBlend mode="normal" in="SourceGraphic" in2="BackgroundImageFix" result="shape"/>
<feGaussianBlur stdDeviation="0.491624" result="effect1_foregroundBlur_388_1535"/>
</filter>
<filter id="filter1_i_388_1535" x="29.0496" y="37.5668" width="5.21185" height="7.6167" filterUnits="userSpaceOnUse" color-interpolation-filters="sRGB">
<feFlood flood-opacity="0" result="BackgroundImageFix"/>
<feBlend mode="normal" in="SourceGraphic" in2="BackgroundImageFix" result="shape"/>
<feColorMatrix in="SourceAlpha" type="matrix" values="0 0 0 0 0 0 0 0 0 0 0 0 0 0 0 0 0 0 127 0" result="hardAlpha"/>
<feMorphology radius="0.0352656" operator="erode" in="SourceAlpha" result="effect1_innerShadow_388_1535"/>
<feOffset/>
<feGaussianBlur stdDeviation="0.0176328"/>
<feComposite in2="hardAlpha" operator="arithmetic" k2="-1" k3="1"/>
<feColorMatrix type="matrix" values="0 0 0 0 0 0 0 0 0 0 0 0 0 0 0 0 0 0 0.25 0"/>
<feBlend mode="normal" in2="shape" result="effect1_innerShadow_388_1535"/>
</filter>
<filter id="filter2_di_388_1535" x="29.3836" y="38.2091" width="4.45816" height="6.4073" filterUnits="userSpaceOnUse" color-interpolation-filters="sRGB">
<feFlood flood-opacity="0" result="BackgroundImageFix"/>
<feColorMatrix in="SourceAlpha" type="matrix" values="0 0 0 0 0 0 0 0 0 0 0 0 0 0 0 0 0 0 127 0" result="hardAlpha"/>
<feOffset dy="0.0141063"/>
<feGaussianBlur stdDeviation="0.0105797"/>
<feColorMatrix type="matrix" values="0 0 0 0 1 0 0 0 0 1 0 0 0 0 1 0 0 0 0.41 0"/>
<feBlend mode="normal" in2="BackgroundImageFix" result="effect1_dropShadow_388_1535"/>
<feBlend mode="normal" in="SourceGraphic" in2="effect1_dropShadow_388_1535" result="shape"/>
<feColorMatrix in="SourceAlpha" type="matrix" values="0 0 0 0 0 0 0 0 0 0 0 0 0 0 0 0 0 0 127 0" result="hardAlpha"/>
<feOffset dx="-0.105797" dy="0.0705312"/>
<feGaussianBlur stdDeviation="0.0528984"/>
<feComposite in2="hardAlpha" operator="arithmetic" k2="-1" k3="1"/>
<feColorMatrix type="matrix" values="0 0 0 0 0 0 0 0 0 0 0 0 0 0 0 0 0 0 0.25 0"/>
<feBlend mode="normal" in2="shape" result="effect2_innerShadow_388_1535"/>
</filter>
<filter id="filter3_i_388_1535" x="29.245" y="37.682" width="4.86365" height="7.38257" filterUnits="userSpaceOnUse" color-interpolation-filters="sRGB">
<feFlood flood-opacity="0" result="BackgroundImageFix"/>
<feBlend mode="normal" in="SourceGraphic" in2="BackgroundImageFix" result="shape"/>
<feColorMatrix in="SourceAlpha" type="matrix" values="0 0 0 0 0 0 0 0 0 0 0 0 0 0 0 0 0 0 127 0" result="hardAlpha"/>
<feMorphology radius="0.0258928" operator="erode" in="SourceAlpha" result="effect1_innerShadow_388_1535"/>
<feOffset/>
<feGaussianBlur stdDeviation="0.0129464"/>
<feComposite in2="hardAlpha" operator="arithmetic" k2="-1" k3="1"/>
<feColorMatrix type="matrix" values="0 0 0 0 0 0 0 0 0 0 0 0 0 0 0 0 0 0 0.25 0"/>
<feBlend mode="normal" in2="shape" result="effect1_innerShadow_388_1535"/>
</filter>
<filter id="filter4_di_388_1535" x="29.7727" y="38.6379" width="3.72736" height="5.54267" filterUnits="userSpaceOnUse" color-interpolation-filters="sRGB">
<feFlood flood-opacity="0" result="BackgroundImageFix"/>
<feColorMatrix in="SourceAlpha" type="matrix" values="0 0 0 0 0 0 0 0 0 0 0 0 0 0 0 0 0 0 127 0" result="hardAlpha"/>
<feOffset dy="0.0141062"/>
<feGaussianBlur stdDeviation="0.0105797"/>
<feColorMatrix type="matrix" values="0 0 0 0 1 0 0 0 0 1 0 0 0 0 1 0 0 0 0.41 0"/>
<feBlend mode="normal" in2="BackgroundImageFix" result="effect1_dropShadow_388_1535"/>
<feBlend mode="normal" in="SourceGraphic" in2="effect1_dropShadow_388_1535" result="shape"/>
<feColorMatrix in="SourceAlpha" type="matrix" values="0 0 0 0 0 0 0 0 0 0 0 0 0 0 0 0 0 0 127 0" result="hardAlpha"/>
<feOffset dx="-0.105797" dy="0.0705312"/>
<feGaussianBlur stdDeviation="0.0528984"/>
<feComposite in2="hardAlpha" operator="arithmetic" k2="-1" k3="1"/>
<feColorMatrix type="matrix" values="0 0 0 0 0 0 0 0 0 0 0 0 0 0 0 0 0 0 0.25 0"/>
<feBlend mode="normal" in2="shape" result="effect2_innerShadow_388_1535"/>
</filter>
<filter id="filter5_i_388_1535" x="9.30481" y="27.4113" width="3.94983" height="6.53815" filterUnits="userSpaceOnUse" color-interpolation-filters="sRGB">
<feFlood flood-opacity="0" result="BackgroundImageFix"/>
<feBlend mode="normal" in="SourceGraphic" in2="BackgroundImageFix" result="shape"/>
<feColorMatrix in="SourceAlpha" type="matrix" values="0 0 0 0 0 0 0 0 0 0 0 0 0 0 0 0 0 0 127 0" result="hardAlpha"/>
<feMorphology radius="0.0291228" operator="erode" in="SourceAlpha" result="effect1_innerShadow_388_1535"/>
<feOffset/>
<feGaussianBlur stdDeviation="0.0145614"/>
<feComposite in2="hardAlpha" operator="arithmetic" k2="-1" k3="1"/>
<feColorMatrix type="matrix" values="0 0 0 0 0 0 0 0 0 0 0 0 0 0 0 0 0 0 0.25 0"/>
<feBlend mode="normal" in2="shape" result="effect1_innerShadow_388_1535"/>
</filter>
<filter id="filter6_di_388_1535" x="9.54718" y="27.9544" width="3.38728" height="5.49742" filterUnits="userSpaceOnUse" color-interpolation-filters="sRGB">
<feFlood flood-opacity="0" result="BackgroundImageFix"/>
<feColorMatrix in="SourceAlpha" type="matrix" values="0 0 0 0 0 0 0 0 0 0 0 0 0 0 0 0 0 0 127 0" result="hardAlpha"/>
<feOffset dy="0.0116491"/>
<feGaussianBlur stdDeviation="0.00873684"/>
<feColorMatrix type="matrix" values="0 0 0 0 1 0 0 0 0 1 0 0 0 0 1 0 0 0 0.41 0"/>
<feBlend mode="normal" in2="BackgroundImageFix" result="effect1_dropShadow_388_1535"/>
<feBlend mode="normal" in="SourceGraphic" in2="effect1_dropShadow_388_1535" result="shape"/>
<feColorMatrix in="SourceAlpha" type="matrix" values="0 0 0 0 0 0 0 0 0 0 0 0 0 0 0 0 0 0 127 0" result="hardAlpha"/>
<feOffset dx="-0.0873684" dy="0.0582456"/>
<feGaussianBlur stdDeviation="0.0436842"/>
<feComposite in2="hardAlpha" operator="arithmetic" k2="-1" k3="1"/>
<feColorMatrix type="matrix" values="0 0 0 0 0 0 0 0 0 0 0 0 0 0 0 0 0 0 0.25 0"/>
<feBlend mode="normal" in2="shape" result="effect2_innerShadow_388_1535"/>
</filter>
<filter id="filter7_i_388_1535" x="9.26959" y="27.8832" width="3.85876" height="6.21906" filterUnits="userSpaceOnUse" color-interpolation-filters="sRGB">
<feFlood flood-opacity="0" result="BackgroundImageFix"/>
<feBlend mode="normal" in="SourceGraphic" in2="BackgroundImageFix" result="shape"/>
<feColorMatrix in="SourceAlpha" type="matrix" values="0 0 0 0 0 0 0 0 0 0 0 0 0 0 0 0 0 0 127 0" result="hardAlpha"/>
<feMorphology radius="0.0258928" operator="erode" in="SourceAlpha" result="effect1_innerShadow_388_1535"/>
<feOffset/>
<feGaussianBlur stdDeviation="0.0129464"/>
<feComposite in2="hardAlpha" operator="arithmetic" k2="-1" k3="1"/>
<feColorMatrix type="matrix" values="0 0 0 0 0 0 0 0 0 0 0 0 0 0 0 0 0 0 0.25 0"/>
<feBlend mode="normal" in2="shape" result="effect1_innerShadow_388_1535"/>
</filter>
<filter id="filter8_i_388_1535" x="9.26959" y="27.8832" width="3.85876" height="6.21906" filterUnits="userSpaceOnUse" color-interpolation-filters="sRGB">
<feFlood flood-opacity="0" result="BackgroundImageFix"/>
<feBlend mode="normal" in="SourceGraphic" in2="BackgroundImageFix" result="shape"/>
<feColorMatrix in="SourceAlpha" type="matrix" values="0 0 0 0 0 0 0 0 0 0 0 0 0 0 0 0 0 0 127 0" result="hardAlpha"/>
<feMorphology radius="0.0262102" operator="erode" in="SourceAlpha" result="effect1_innerShadow_388_1535"/>
<feOffset/>
<feGaussianBlur stdDeviation="0.0131051"/>
<feComposite in2="hardAlpha" operator="arithmetic" k2="-1" k3="1"/>
<feColorMatrix type="matrix" values="0 0 0 0 0 0 0 0 0 0 0 0 0 0 0 0 0 0 0.25 0"/>
<feBlend mode="normal" in2="shape" result="effect1_innerShadow_388_1535"/>
</filter>
<filter id="filter9_di_388_1535" x="9.64426" y="28.6665" width="2.92554" height="4.72126" filterUnits="userSpaceOnUse" color-interpolation-filters="sRGB">
<feFlood flood-opacity="0" result="BackgroundImageFix"/>
<feColorMatrix in="SourceAlpha" type="matrix" values="0 0 0 0 0 0 0 0 0 0 0 0 0 0 0 0 0 0 127 0" result="hardAlpha"/>
<feOffset dy="0.0141063"/>
<feGaussianBlur stdDeviation="0.0105797"/>
<feColorMatrix type="matrix" values="0 0 0 0 1 0 0 0 0 1 0 0 0 0 1 0 0 0 0.41 0"/>
<feBlend mode="normal" in2="BackgroundImageFix" result="effect1_dropShadow_388_1535"/>
<feBlend mode="normal" in="SourceGraphic" in2="effect1_dropShadow_388_1535" result="shape"/>
<feColorMatrix in="SourceAlpha" type="matrix" values="0 0 0 0 0 0 0 0 0 0 0 0 0 0 0 0 0 0 127 0" result="hardAlpha"/>
<feOffset dx="-0.105797" dy="0.0705313"/>
<feGaussianBlur stdDeviation="0.0528985"/>
<feComposite in2="hardAlpha" operator="arithmetic" k2="-1" k3="1"/>
<feColorMatrix type="matrix" values="0 0 0 0 0 0 0 0 0 0 0 0 0 0 0 0 0 0 0.25 0"/>
<feBlend mode="normal" in2="shape" result="effect2_innerShadow_388_1535"/>
</filter>
<filter id="filter10_ii_388_1535" x="6.86456" y="14.943" width="49.9554" height="32.7188" filterUnits="userSpaceOnUse" color-interpolation-filters="sRGB">
<feFlood flood-opacity="0" result="BackgroundImageFix"/>
<feBlend mode="normal" in="SourceGraphic" in2="BackgroundImageFix" result="shape"/>
<feColorMatrix in="SourceAlpha" type="matrix" values="0 0 0 0 0 0 0 0 0 0 0 0 0 0 0 0 0 0 127 0" result="hardAlpha"/>
<feOffset dx="0.211594" dy="-0.282125"/>
<feGaussianBlur stdDeviation="0.846375"/>
<feComposite in2="hardAlpha" operator="arithmetic" k2="-1" k3="1"/>
<feColorMatrix type="matrix" values="0 0 0 0 0 0 0 0 0 0 0 0 0 0 0 0 0 0 0.07 0"/>
<feBlend mode="normal" in2="shape" result="effect1_innerShadow_388_1535"/>
<feColorMatrix in="SourceAlpha" type="matrix" values="0 0 0 0 0 0 0 0 0 0 0 0 0 0 0 0 0 0 127 0" result="hardAlpha"/>
<feOffset dy="-0.0352656"/>
<feGaussianBlur stdDeviation="0.0705312"/>
<feComposite in2="hardAlpha" operator="arithmetic" k2="-1" k3="1"/>
<feColorMatrix type="matrix" values="0 0 0 0 0 0 0 0 0 0 0 0 0 0 0 0 0 0 0.25 0"/>
<feBlend mode="normal" in2="effect1_innerShadow_388_1535" result="effect2_innerShadow_388_1535"/>
</filter>
<filter id="filter11_ddi_388_1535" x="25.7199" y="19.6837" width="18.4916" height="11.3572" filterUnits="userSpaceOnUse" color-interpolation-filters="sRGB">
<feFlood flood-opacity="0" result="BackgroundImageFix"/>
<feColorMatrix in="SourceAlpha" type="matrix" values="0 0 0 0 0 0 0 0 0 0 0 0 0 0 0 0 0 0 127 0" result="hardAlpha"/>
<feOffset dx="-0.0705312" dy="0.0352656"/>
<feGaussianBlur stdDeviation="0.0352656"/>
<feColorMatrix type="matrix" values="0 0 0 0 1 0 0 0 0 1 0 0 0 0 1 0 0 0 0.28 0"/>
<feBlend mode="normal" in2="BackgroundImageFix" result="effect1_dropShadow_388_1535"/>
<feColorMatrix in="SourceAlpha" type="matrix" values="0 0 0 0 0 0 0 0 0 0 0 0 0 0 0 0 0 0 127 0" result="hardAlpha"/>
<feOffset dy="-0.0352656"/>
<feGaussianBlur stdDeviation="0.0352656"/>
<feColorMatrix type="matrix" values="0 0 0 0 1 0 0 0 0 1 0 0 0 0 1 0 0 0 0.56 0"/>
<feBlend mode="normal" in2="effect1_dropShadow_388_1535" result="effect2_dropShadow_388_1535"/>
<feBlend mode="normal" in="SourceGraphic" in2="effect2_dropShadow_388_1535" result="shape"/>
<feColorMatrix in="SourceAlpha" type="matrix" values="0 0 0 0 0 0 0 0 0 0 0 0 0 0 0 0 0 0 127 0" result="hardAlpha"/>
<feOffset dx="-0.0352656" dy="0.105797"/>
<feGaussianBlur stdDeviation="0.0528984"/>
<feComposite in2="hardAlpha" operator="arithmetic" k2="-1" k3="1"/>
<feColorMatrix type="matrix" values="0 0 0 0 0 0 0 0 0 0 0 0 0 0 0 0 0 0 0.75 0"/>
<feBlend mode="normal" in2="shape" result="effect3_innerShadow_388_1535"/>
</filter>
<filter id="filter12_di_388_1535" x="11.2761" y="20.4149" width="17.6875" height="10.3389" filterUnits="userSpaceOnUse" color-interpolation-filters="sRGB">
<feFlood flood-opacity="0" result="BackgroundImageFix"/>
<feColorMatrix in="SourceAlpha" type="matrix" values="0 0 0 0 0 0 0 0 0 0 0 0 0 0 0 0 0 0 127 0" result="hardAlpha"/>
<feOffset dy="0.0364692"/>
<feGaussianBlur stdDeviation="0.0182346"/>
<feColorMatrix type="matrix" values="0 0 0 0 0.925374 0 0 0 0 0.925374 0 0 0 0 0.925374 0 0 0 0.37 0"/>
<feBlend mode="normal" in2="BackgroundImageFix" result="effect1_dropShadow_388_1535"/>
<feBlend mode="normal" in="SourceGraphic" in2="effect1_dropShadow_388_1535" result="shape"/>
<feColorMatrix in="SourceAlpha" type="matrix" values="0 0 0 0 0 0 0 0 0 0 0 0 0 0 0 0 0 0 127 0" result="hardAlpha"/>
<feOffset dx="-0.141062" dy="0.176328"/>
<feGaussianBlur stdDeviation="0.0705312"/>
<feComposite in2="hardAlpha" operator="arithmetic" k2="-1" k3="1"/>
<feColorMatrix type="matrix" values="0 0 0 0 0 0 0 0 0 0 0 0 0 0 0 0 0 0 0.8 0"/>
<feBlend mode="normal" in2="shape" result="effect2_innerShadow_388_1535"/>
</filter>
<filter id="filter13_di_388_1535" x="11.3204" y="15.4668" width="12.1409" height="4.57618" filterUnits="userSpaceOnUse" color-interpolation-filters="sRGB">
<feFlood flood-opacity="0" result="BackgroundImageFix"/>
<feColorMatrix in="SourceAlpha" type="matrix" values="0 0 0 0 0 0 0 0 0 0 0 0 0 0 0 0 0 0 127 0" result="hardAlpha"/>
<feOffset dy="0.0364692"/>
<feGaussianBlur stdDeviation="0.0182346"/>
<feColorMatrix type="matrix" values="0 0 0 0 0.925374 0 0 0 0 0.925374 0 0 0 0 0.925374 0 0 0 0.37 0"/>
<feBlend mode="normal" in2="BackgroundImageFix" result="effect1_dropShadow_388_1535"/>
<feBlend mode="normal" in="SourceGraphic" in2="effect1_dropShadow_388_1535" result="shape"/>
<feColorMatrix in="SourceAlpha" type="matrix" values="0 0 0 0 0 0 0 0 0 0 0 0 0 0 0 0 0 0 127 0" result="hardAlpha"/>
<feOffset dx="-0.141062" dy="0.176328"/>
<feGaussianBlur stdDeviation="0.0705312"/>
<feComposite in2="hardAlpha" operator="arithmetic" k2="-1" k3="1"/>
<feColorMatrix type="matrix" values="0 0 0 0 0 0 0 0 0 0 0 0 0 0 0 0 0 0 0.8 0"/>
<feBlend mode="normal" in2="shape" result="effect2_innerShadow_388_1535"/>
</filter>
<filter id="filter14_f_388_1535" x="26.7736" y="29.1792" width="22.4291" height="9.91158" filterUnits="userSpaceOnUse" color-interpolation-filters="sRGB">
<feFlood flood-opacity="0" result="BackgroundImageFix"/>
<feBlend mode="normal" in="SourceGraphic" in2="BackgroundImageFix" result="shape"/>
<feGaussianBlur stdDeviation="0.493719" result="effect1_foregroundBlur_388_1535"/>
</filter>
<filter id="filter15_di_388_1535" x="21.0198" y="30.0414" width="1.57127" height="1.33514" filterUnits="userSpaceOnUse" color-interpolation-filters="sRGB">
<feFlood flood-opacity="0" result="BackgroundImageFix"/>
<feColorMatrix in="SourceAlpha" type="matrix" values="0 0 0 0 0 0 0 0 0 0 0 0 0 0 0 0 0 0 127 0" result="hardAlpha"/>
<feOffset dy="-0.017491"/>
<feGaussianBlur stdDeviation="0.00874549"/>
<feColorMatrix type="matrix" values="0 0 0 0 0.78755 0 0 0 0 0.78755 0 0 0 0 0.78755 0 0 0 0.19 0"/>
<feBlend mode="normal" in2="BackgroundImageFix" result="effect1_dropShadow_388_1535"/>
<feBlend mode="normal" in="SourceGraphic" in2="effect1_dropShadow_388_1535" result="shape"/>
<feColorMatrix in="SourceAlpha" type="matrix" values="0 0 0 0 0 0 0 0 0 0 0 0 0 0 0 0 0 0 127 0" result="hardAlpha"/>
<feOffset dy="0.0874549"/>
<feGaussianBlur stdDeviation="0.0437275"/>
<feComposite in2="hardAlpha" operator="arithmetic" k2="-1" k3="1"/>
<feColorMatrix type="matrix" values="0 0 0 0 0 0 0 0 0 0 0 0 0 0 0 0 0 0 0.74 0"/>
<feBlend mode="normal" in2="shape" result="effect2_innerShadow_388_1535"/>
</filter>
<filter id="filter16_di_388_1535" x="13.8899" y="26.7631" width="1.57127" height="1.33514" filterUnits="userSpaceOnUse" color-interpolation-filters="sRGB">
<feFlood flood-opacity="0" result="BackgroundImageFix"/>
<feColorMatrix in="SourceAlpha" type="matrix" values="0 0 0 0 0 0 0 0 0 0 0 0 0 0 0 0 0 0 127 0" result="hardAlpha"/>
<feOffset dy="-0.017491"/>
<feGaussianBlur stdDeviation="0.00874549"/>
<feColorMatrix type="matrix" values="0 0 0 0 0.78755 0 0 0 0 0.78755 0 0 0 0 0.78755 0 0 0 0.19 0"/>
<feBlend mode="normal" in2="BackgroundImageFix" result="effect1_dropShadow_388_1535"/>
<feBlend mode="normal" in="SourceGraphic" in2="effect1_dropShadow_388_1535" result="shape"/>
<feColorMatrix in="SourceAlpha" type="matrix" values="0 0 0 0 0 0 0 0 0 0 0 0 0 0 0 0 0 0 127 0" result="hardAlpha"/>
<feOffset dy="0.0874549"/>
<feGaussianBlur stdDeviation="0.0437275"/>
<feComposite in2="hardAlpha" operator="arithmetic" k2="-1" k3="1"/>
<feColorMatrix type="matrix" values="0 0 0 0 0 0 0 0 0 0 0 0 0 0 0 0 0 0 0.74 0"/>
<feBlend mode="normal" in2="shape" result="effect2_innerShadow_388_1535"/>
</filter>
<filter id="filter17_f_388_1535" x="42.4038" y="32.6505" width="12.7904" height="8.08361" filterUnits="userSpaceOnUse" color-interpolation-filters="sRGB">
<feFlood flood-opacity="0" result="BackgroundImageFix"/>
<feBlend mode="normal" in="SourceGraphic" in2="BackgroundImageFix" result="shape"/>
<feGaussianBlur stdDeviation="0.176328" result="effect1_foregroundBlur_388_1535"/>
</filter>
<filter id="filter18_dii_388_1535" x="38.0622" y="32.5596" width="18.5831" height="9.82118" filterUnits="userSpaceOnUse" color-interpolation-filters="sRGB">
<feFlood flood-opacity="0" result="BackgroundImageFix"/>
<feColorMatrix in="SourceAlpha" type="matrix" values="0 0 0 0 0 0 0 0 0 0 0 0 0 0 0 0 0 0 127 0" result="hardAlpha"/>
<feOffset dy="0.0329701"/>
<feGaussianBlur stdDeviation="0.0989102"/>
<feColorMatrix type="matrix" values="0 0 0 0 0 0 0 0 0 0 0 0 0 0 0 0 0 0 0.85 0"/>
<feBlend mode="normal" in2="BackgroundImageFix" result="effect1_dropShadow_388_1535"/>
<feBlend mode="normal" in="SourceGraphic" in2="effect1_dropShadow_388_1535" result="shape"/>
<feColorMatrix in="SourceAlpha" type="matrix" values="0 0 0 0 0 0 0 0 0 0 0 0 0 0 0 0 0 0 127 0" result="hardAlpha"/>
<feOffset dy="0.0329701"/>
<feGaussianBlur stdDeviation="0.0329701"/>
<feComposite in2="hardAlpha" operator="arithmetic" k2="-1" k3="1"/>
<feColorMatrix type="matrix" values="0 0 0 0 0 0 0 0 0 0 0 0 0 0 0 0 0 0 0.25 0"/>
<feBlend mode="normal" in2="shape" result="effect2_innerShadow_388_1535"/>
<feColorMatrix in="SourceAlpha" type="matrix" values="0 0 0 0 0 0 0 0 0 0 0 0 0 0 0 0 0 0 127 0" result="hardAlpha"/>
<feOffset dy="-0.0329701"/>
<feGaussianBlur stdDeviation="0.0329701"/>
<feComposite in2="hardAlpha" operator="arithmetic" k2="-1" k3="1"/>
<feColorMatrix type="matrix" values="0 0 0 0 0 0 0 0 0 0 0 0 0 0 0 0 0 0 0.25 0"/>
<feBlend mode="normal" in2="effect2_innerShadow_388_1535" result="effect3_innerShadow_388_1535"/>
</filter>
<filter id="filter19_d_388_1535" x="40.7921" y="38.6394" width="5.59059" height="2.26304" filterUnits="userSpaceOnUse" color-interpolation-filters="sRGB">
<feFlood flood-opacity="0" result="BackgroundImageFix"/>
<feColorMatrix in="SourceAlpha" type="matrix" values="0 0 0 0 0 0 0 0 0 0 0 0 0 0 0 0 0 0 127 0" result="hardAlpha"/>
<feOffset dx="0.034982" dy="0.0874549"/>
<feGaussianBlur stdDeviation="0.0437274"/>
<feColorMatrix type="matrix" values="0 0 0 0 1 0 0 0 0 1 0 0 0 0 1 0 0 0 0.24 0"/>
<feBlend mode="normal" in2="BackgroundImageFix" result="effect1_dropShadow_388_1535"/>
<feBlend mode="normal" in="SourceGraphic" in2="effect1_dropShadow_388_1535" result="shape"/>
</filter>
<filter id="filter20_d_388_1535" x="54.4942" y="33.037" width="1.6442" height="2.1377" filterUnits="userSpaceOnUse" color-interpolation-filters="sRGB">
<feFlood flood-opacity="0" result="BackgroundImageFix"/>
<feColorMatrix in="SourceAlpha" type="matrix" values="0 0 0 0 0 0 0 0 0 0 0 0 0 0 0 0 0 0 127 0" result="hardAlpha"/>
<feOffset dx="0.0524729" dy="0.0524729"/>
<feGaussianBlur stdDeviation="0.0183505"/>
<feColorMatrix type="matrix" values="0 0 0 0 1 0 0 0 0 1 0 0 0 0 1 0 0 0 0.24 0"/>
<feBlend mode="normal" in2="BackgroundImageFix" result="effect1_dropShadow_388_1535"/>
<feBlend mode="normal" in="SourceGraphic" in2="effect1_dropShadow_388_1535" result="shape"/>
</filter>
<linearGradient id="paint0_linear_388_1535" x1="5.4392" y1="6.0719" x2="5.7188" y2="1.97911" gradientUnits="userSpaceOnUse">
<stop stop-color="#3F3F3F"/>
<stop offset="1" stop-color="#5C5C5C"/>
</linearGradient>
<linearGradient id="paint1_linear_388_1535" x1="5.04635" y1="5.36924" x2="3.43951" y2="-1.7774" gradientUnits="userSpaceOnUse">
<stop stop-color="#3F3F3F"/>
<stop offset="1" stop-color="#777676"/>
</linearGradient>
<linearGradient id="paint2_linear_388_1535" x1="4.50545" y1="4.99938" x2="4.7343" y2="1.62934" gradientUnits="userSpaceOnUse">
<stop stop-color="#3F3F3F"/>
<stop offset="1" stop-color="#5C5C5C"/>
</linearGradient>
<linearGradient id="paint3_linear_388_1535" x1="4.2158" y1="4.39425" x2="2.92501" y2="-1.466" gradientUnits="userSpaceOnUse">
<stop stop-color="#3F3F3F"/>
<stop offset="1" stop-color="#777676"/>
</linearGradient>
<linearGradient id="paint4_linear_388_1535" x1="9.01832" y1="31.4753" x2="10.516" y2="27.5443" gradientUnits="userSpaceOnUse">
<stop stop-color="#3F3F3F"/>
<stop offset="1" stop-color="#777676"/>
</linearGradient>
<linearGradient id="paint5_linear_388_1535" x1="36.9777" y1="46.235" x2="53.3019" y2="23.3762" gradientUnits="userSpaceOnUse">
<stop stop-color="#C1AE00"/>
<stop offset="0.628054" stop-color="#FCE621"/>
<stop offset="1" stop-color="#FFF59D"/>
</linearGradient>
<linearGradient id="paint6_linear_388_1535" x1="37.0316" y1="9.96976" x2="23.5376" y2="22.2205" gradientUnits="userSpaceOnUse">
<stop stop-color="#E8EAE9"/>
<stop offset="0.498386" stop-color="#707072"/>
<stop offset="1" stop-color="#2F3032"/>
</linearGradient>
<linearGradient id="paint7_linear_388_1535" x1="15.7103" y1="52.8749" x2="28.9251" y2="29.7006" gradientUnits="userSpaceOnUse">
<stop stop-color="#E8EAE9"/>
<stop offset="0.498386" stop-color="#707072"/>
<stop offset="1" stop-color="#2F3032"/>
</linearGradient>
<linearGradient id="paint8_linear_388_1535" x1="10.4182" y1="28.4457" x2="17.7325" y2="18.1744" gradientUnits="userSpaceOnUse">
<stop stop-color="#E8EAE9"/>
<stop offset="0.498386" stop-color="#707072"/>
<stop offset="1" stop-color="#2F3032"/>
</linearGradient>
<linearGradient id="paint9_linear_388_1535" x1="37.3122" y1="38.5632" x2="39.0474" y2="33.6962" gradientUnits="userSpaceOnUse">
<stop stop-color="#ECEAEA"/>
<stop offset="1" stop-color="white" stop-opacity="0"/>
</linearGradient>
<linearGradient id="paint10_linear_388_1535" x1="48.9488" y1="39.1637" x2="47.7892" y2="37" gradientUnits="userSpaceOnUse">
<stop stop-color="#4B4B4B"/>
<stop offset="0.899322" stop-opacity="0"/>
</linearGradient>
</defs>
</svg>
