<svg width="97" height="68" viewBox="0 0 97 68" fill="none" xmlns="http://www.w3.org/2000/svg">
<rect width="97" height="32" rx="12" fill="black"/>
<path d="M18.392 15.2784V16.2159H14.7955V15.2784H18.392ZM12.7159 17.2727H13.8068C13.9006 17.8864 14.108 18.358 14.429 18.6875C14.75 19.017 15.2642 19.1818 15.9716 19.1818C16.4716 19.1818 16.8892 19.0412 17.2244 18.7599C17.5625 18.4787 17.8153 18.1065 17.983 17.6435C18.1534 17.1804 18.2386 16.6761 18.2386 16.1307V15.1591C18.2386 14.5568 18.1435 14.027 17.9531 13.5696C17.7656 13.1094 17.4943 12.7514 17.1392 12.4957C16.7869 12.2372 16.3636 12.108 15.8693 12.108C15.4375 12.108 15.0795 12.1847 14.7955 12.3381C14.5114 12.4915 14.2898 12.7116 14.1307 12.9986C13.9716 13.2855 13.8636 13.6307 13.8068 14.0341H12.7159C12.7727 13.4773 12.9247 12.983 13.1719 12.5511C13.4219 12.1165 13.7699 11.7756 14.2159 11.5284C14.6648 11.2784 15.2159 11.1534 15.8693 11.1534C16.5795 11.1534 17.1932 11.3196 17.7102 11.652C18.2273 11.9815 18.6264 12.446 18.9077 13.0455C19.1889 13.642 19.3295 14.3409 19.3295 15.142V16.1477C19.3295 16.9489 19.1903 17.6477 18.9119 18.2443C18.6335 18.8381 18.2429 19.2997 17.7401 19.6293C17.2372 19.956 16.6477 20.1193 15.9716 20.1193C15.2784 20.1193 14.7017 19.9943 14.2415 19.7443C13.7841 19.4915 13.4304 19.1506 13.1804 18.7216C12.9332 18.2898 12.7784 17.8068 12.7159 17.2727ZM25.3519 16.267V17.2045H21.7383V16.267H25.3519ZM21.9769 13.4545V20H20.9712V13.4545H21.9769ZM26.119 13.4545V20H25.1133V13.4545H26.119ZM27.2567 21.875V19.0625H27.8022C27.9357 18.9233 28.0508 18.7727 28.1474 18.6108C28.244 18.4489 28.3278 18.2571 28.3988 18.0355C28.4727 17.8111 28.5352 17.5384 28.5863 17.2173C28.6374 16.8935 28.6829 16.5028 28.7227 16.0455L28.9442 13.4545H33.1033V19.0625H34.109V21.875H33.1033V20H28.2624V21.875H27.2567ZM28.9442 19.0625H32.0977V14.392H29.8817L29.7113 16.0455C29.6403 16.7301 29.5522 17.3281 29.4471 17.8395C29.342 18.3509 29.1744 18.7585 28.9442 19.0625ZM37.6087 14.3068C37.3814 14.3097 37.1527 14.3679 36.9226 14.4815C36.6953 14.5952 36.505 14.7457 36.3516 14.9332C36.201 15.1179 36.1257 15.3239 36.1257 15.5511H35.1371C35.1371 15.267 35.2053 14.9943 35.3416 14.733C35.478 14.4716 35.6612 14.2386 35.8913 14.0341C36.1243 13.8295 36.3885 13.6676 36.6839 13.5483C36.9822 13.429 37.2905 13.3693 37.6087 13.3693C38.2053 13.3693 38.7109 13.5199 39.1257 13.821C39.5433 14.1222 39.8601 14.5199 40.076 15.0142C40.2947 15.5085 40.4041 16.0455 40.4041 16.625V16.8636C40.4041 17.4403 40.2947 17.9773 40.076 18.4744C39.8601 18.9687 39.5433 19.3665 39.1257 19.6676C38.7109 19.9687 38.2053 20.1193 37.6087 20.1193C37.1314 20.1193 36.7067 20.0142 36.3345 19.804C35.9624 19.5909 35.6697 19.3068 35.4567 18.9517C35.2436 18.5966 35.1371 18.2017 35.1371 17.767H36.1257C36.1257 18.0142 36.1953 18.2457 36.3345 18.4616C36.4766 18.6747 36.6598 18.848 36.8842 18.9815C37.1115 19.1122 37.353 19.179 37.6087 19.1818C37.9893 19.179 38.3132 19.0597 38.5803 18.8239C38.8473 18.5881 39.0504 18.2926 39.1896 17.9375C39.3288 17.5824 39.3984 17.2244 39.3984 16.8636V16.625C39.3984 16.2557 39.3288 15.8949 39.1896 15.5426C39.0533 15.1875 38.8516 14.8935 38.5845 14.6605C38.3203 14.4276 37.995 14.3097 37.6087 14.3068ZM39.8075 16.233V17.1705H36.9439V16.233H39.8075ZM44.1009 14.3068C43.8736 14.3097 43.6449 14.3679 43.4148 14.4815C43.1875 14.5952 42.9972 14.7457 42.8438 14.9332C42.6932 15.1179 42.6179 15.3239 42.6179 15.5511H41.6293C41.6293 15.267 41.6974 14.9943 41.8338 14.733C41.9702 14.4716 42.1534 14.2386 42.3835 14.0341C42.6165 13.8295 42.8807 13.6676 43.1761 13.5483C43.4744 13.429 43.7827 13.3693 44.1009 13.3693C44.6974 13.3693 45.2031 13.5199 45.6179 13.821C46.0355 14.1222 46.3523 14.5199 46.5682 15.0142C46.7869 15.5085 46.8963 16.0455 46.8963 16.625V16.8636C46.8963 17.4403 46.7869 17.9773 46.5682 18.4744C46.3523 18.9687 46.0355 19.3665 45.6179 19.6676C45.2031 19.9687 44.6974 20.1193 44.1009 20.1193C43.6236 20.1193 43.1989 20.0142 42.8267 19.804C42.4545 19.5909 42.1619 19.3068 41.9489 18.9517C41.7358 18.5966 41.6293 18.2017 41.6293 17.767H42.6179C42.6179 18.0142 42.6875 18.2457 42.8267 18.4616C42.9688 18.6747 43.152 18.848 43.3764 18.9815C43.6037 19.1122 43.8452 19.179 44.1009 19.1818C44.4815 19.179 44.8054 19.0597 45.0724 18.8239C45.3395 18.5881 45.5426 18.2926 45.6818 17.9375C45.821 17.5824 45.8906 17.2244 45.8906 16.8636V16.625C45.8906 16.2557 45.821 15.8949 45.6818 15.5426C45.5455 15.1875 45.3438 14.8935 45.0767 14.6605C44.8125 14.4276 44.4872 14.3097 44.1009 14.3068ZM46.2997 16.233V17.1705H43.4361V16.233H46.2997ZM51.0874 20.1364C50.4737 20.1364 49.9453 19.9915 49.5021 19.7017C49.0589 19.4119 48.718 19.0128 48.4794 18.5043C48.2408 17.9957 48.1214 17.4148 48.1214 16.7614C48.1214 16.0966 48.2436 15.5099 48.4879 15.0014C48.7351 14.4901 49.0788 14.0909 49.5192 13.804C49.9624 13.5142 50.4794 13.3693 51.0703 13.3693C51.5305 13.3693 51.9453 13.4545 52.3146 13.625C52.6839 13.7955 52.9865 14.0341 53.2223 14.3409C53.4581 14.6477 53.6044 15.0057 53.6612 15.4148H52.6555C52.5788 15.1165 52.4084 14.8523 52.1442 14.6222C51.8828 14.3892 51.5305 14.2727 51.0874 14.2727C50.6953 14.2727 50.3516 14.375 50.0561 14.5795C49.7635 14.7812 49.5348 15.0668 49.37 15.4361C49.2081 15.8026 49.1271 16.233 49.1271 16.7273C49.1271 17.233 49.2067 17.6733 49.3658 18.0483C49.5277 18.4233 49.755 18.7145 50.0476 18.9219C50.343 19.1293 50.6896 19.233 51.0874 19.233C51.3487 19.233 51.5859 19.1875 51.799 19.0966C52.0121 19.0057 52.1925 18.875 52.3402 18.7045C52.4879 18.5341 52.593 18.3295 52.6555 18.0909H53.6612C53.6044 18.4773 53.4638 18.8253 53.2393 19.1349C53.0178 19.4418 52.7237 19.6861 52.3572 19.8679C51.9936 20.0469 51.5703 20.1364 51.0874 20.1364ZM60.4325 20.1534C60.0178 20.1534 59.6413 20.0753 59.3033 19.919C58.9652 19.7599 58.6967 19.5312 58.4979 19.233C58.299 18.9318 58.1996 18.5682 58.1996 18.142C58.1996 17.767 58.2734 17.4631 58.4212 17.2301C58.5689 16.9943 58.7663 16.8097 59.0135 16.6761C59.2607 16.5426 59.5334 16.4432 59.8317 16.3778C60.1328 16.3097 60.4354 16.2557 60.7393 16.2159C61.1371 16.1648 61.4595 16.1264 61.7067 16.1009C61.9567 16.0724 62.1385 16.0256 62.2521 15.9602C62.3686 15.8949 62.4268 15.7812 62.4268 15.6193V15.5852C62.4268 15.1648 62.3118 14.8381 62.0817 14.6051C61.8544 14.3722 61.5092 14.2557 61.0462 14.2557C60.5661 14.2557 60.1896 14.3608 59.9169 14.571C59.6442 14.7812 59.4524 15.0057 59.3416 15.2443L58.3871 14.9034C58.5575 14.5057 58.7848 14.196 59.0689 13.9744C59.3558 13.75 59.6683 13.5937 60.0064 13.5057C60.3473 13.4148 60.6825 13.3693 61.0121 13.3693C61.2223 13.3693 61.4638 13.3949 61.7365 13.446C62.0121 13.4943 62.2777 13.5952 62.5334 13.7486C62.7919 13.902 63.0064 14.1335 63.1768 14.4432C63.3473 14.7528 63.4325 15.1676 63.4325 15.6875V20H62.4268V19.1136H62.3757C62.3075 19.2557 62.1939 19.4077 62.0348 19.5696C61.8757 19.7315 61.6641 19.8693 61.3999 19.983C61.1357 20.0966 60.8132 20.1534 60.4325 20.1534ZM60.5859 19.25C60.9837 19.25 61.3189 19.1719 61.5916 19.0156C61.8672 18.8594 62.0746 18.6577 62.2138 18.4105C62.3558 18.1634 62.4268 17.9034 62.4268 17.6307V16.7102C62.3842 16.7614 62.2905 16.8082 62.1456 16.8509C62.0036 16.8906 61.8388 16.9261 61.6513 16.9574C61.4666 16.9858 61.2862 17.0114 61.1101 17.0341C60.9368 17.054 60.7962 17.071 60.6882 17.0852C60.4268 17.1193 60.1825 17.1747 59.9553 17.2514C59.7308 17.3253 59.549 17.4375 59.4098 17.5881C59.2734 17.7358 59.2053 17.9375 59.2053 18.1932C59.2053 18.5426 59.3345 18.8068 59.593 18.9858C59.8544 19.1619 60.1854 19.25 60.5859 19.25ZM65.2681 20V13.4545H67.9442C68.6488 13.4545 69.2085 13.6136 69.6232 13.9318C70.038 14.25 70.2454 14.6705 70.2454 15.1932C70.2454 15.5909 70.1275 15.8991 69.8917 16.1179C69.6559 16.3338 69.3533 16.4801 68.984 16.5568C69.2255 16.5909 69.4599 16.6761 69.6871 16.8125C69.9173 16.9489 70.1076 17.1364 70.2582 17.375C70.4087 17.6108 70.484 17.9006 70.484 18.2443C70.484 18.5795 70.3988 18.8793 70.2283 19.1435C70.0579 19.4077 69.8136 19.6165 69.4954 19.7699C69.1772 19.9233 68.7965 20 68.3533 20H65.2681ZM66.2227 19.0795H68.3533C68.6999 19.0795 68.9712 18.9972 69.1673 18.8324C69.3633 18.6676 69.4613 18.4432 69.4613 18.1591C69.4613 17.821 69.3633 17.5554 69.1673 17.3622C68.9712 17.1662 68.6999 17.0682 68.3533 17.0682H66.2227V19.0795ZM66.2227 16.1989H67.9442C68.2141 16.1989 68.4457 16.1619 68.6388 16.0881C68.832 16.0114 68.9798 15.9034 69.082 15.7642C69.1871 15.6222 69.2397 15.4545 69.2397 15.2614C69.2397 14.9858 69.1246 14.7699 68.8945 14.6136C68.6644 14.4545 68.3477 14.375 67.9442 14.375H66.2227V16.1989ZM73.9325 20.1534C73.5178 20.1534 73.1413 20.0753 72.8033 19.919C72.4652 19.7599 72.1967 19.5312 71.9979 19.233C71.799 18.9318 71.6996 18.5682 71.6996 18.142C71.6996 17.767 71.7734 17.4631 71.9212 17.2301C72.0689 16.9943 72.2663 16.8097 72.5135 16.6761C72.7607 16.5426 73.0334 16.4432 73.3317 16.3778C73.6328 16.3097 73.9354 16.2557 74.2393 16.2159C74.6371 16.1648 74.9595 16.1264 75.2067 16.1009C75.4567 16.0724 75.6385 16.0256 75.7521 15.9602C75.8686 15.8949 75.9268 15.7812 75.9268 15.6193V15.5852C75.9268 15.1648 75.8118 14.8381 75.5817 14.6051C75.3544 14.3722 75.0092 14.2557 74.5462 14.2557C74.0661 14.2557 73.6896 14.3608 73.4169 14.571C73.1442 14.7812 72.9524 15.0057 72.8416 15.2443L71.8871 14.9034C72.0575 14.5057 72.2848 14.196 72.5689 13.9744C72.8558 13.75 73.1683 13.5937 73.5064 13.5057C73.8473 13.4148 74.1825 13.3693 74.5121 13.3693C74.7223 13.3693 74.9638 13.3949 75.2365 13.446C75.5121 13.4943 75.7777 13.5952 76.0334 13.7486C76.2919 13.902 76.5064 14.1335 76.6768 14.4432C76.8473 14.7528 76.9325 15.1676 76.9325 15.6875V20H75.9268V19.1136H75.8757C75.8075 19.2557 75.6939 19.4077 75.5348 19.5696C75.3757 19.7315 75.1641 19.8693 74.8999 19.983C74.6357 20.0966 74.3132 20.1534 73.9325 20.1534ZM74.0859 19.25C74.4837 19.25 74.8189 19.1719 75.0916 19.0156C75.3672 18.8594 75.5746 18.6577 75.7138 18.4105C75.8558 18.1634 75.9268 17.9034 75.9268 17.6307V16.7102C75.8842 16.7614 75.7905 16.8082 75.6456 16.8509C75.5036 16.8906 75.3388 16.9261 75.1513 16.9574C74.9666 16.9858 74.7862 17.0114 74.6101 17.0341C74.4368 17.054 74.2962 17.071 74.1882 17.0852C73.9268 17.1193 73.6825 17.1747 73.4553 17.2514C73.2308 17.3253 73.049 17.4375 72.9098 17.5881C72.7734 17.7358 72.7053 17.9375 72.7053 18.1932C72.7053 18.5426 72.8345 18.8068 73.093 18.9858C73.3544 19.1619 73.6854 19.25 74.0859 19.25ZM79.5181 13.4545L81.0863 16.1307L82.6545 13.4545H83.8136L81.6999 16.7273L83.8136 20H82.6545L81.0863 17.4602L79.5181 20H78.359L80.4386 16.7273L78.359 13.4545H79.5181Z" fill="white"/>
<rect x="47.5" y="32" width="2" height="24" fill="black"/>
<g filter="url(#filter0_d_1_4968)">
<path fill-rule="evenodd" clip-rule="evenodd" d="M48.5 62C51.2614 62 53.5 61.1046 53.5 60C53.5 58.8954 51.2614 58 48.5 58C45.7386 58 43.5 58.8954 43.5 60C43.5 61.1046 45.7386 62 48.5 62Z" fill="black"/>
</g>
<defs>
<filter id="filter0_d_1_4968" x="39" y="55" width="19" height="13" filterUnits="userSpaceOnUse" color-interpolation-filters="sRGB">
<feFlood flood-opacity="0" result="BackgroundImageFix"/>
<feColorMatrix in="SourceAlpha" type="matrix" values="0 0 0 0 0 0 0 0 0 0 0 0 0 0 0 0 0 0 127 0" result="hardAlpha"/>
<feOffset dy="1.5"/>
<feGaussianBlur stdDeviation="2.25"/>
<feColorMatrix type="matrix" values="0 0 0 0 0 0 0 0 0 0 0 0 0 0 0 0 0 0 0.1402 0"/>
<feBlend mode="normal" in2="BackgroundImageFix" result="effect1_dropShadow_1_4968"/>
<feBlend mode="normal" in="SourceGraphic" in2="effect1_dropShadow_1_4968" result="shape"/>
</filter>
</defs>
</svg>
