<?xml version="1.0" standalone="no"?>
<!DOCTYPE svg PUBLIC "-//W3C//DTD SVG 20010904//EN"
 "http://www.w3.org/TR/2001/REC-SVG-20010904/DTD/svg10.dtd">
<svg version="1.0" xmlns="http://www.w3.org/2000/svg"
 width="200" height="150" viewBox="0 0 1080.000000 1080.000000"
 preserveAspectRatio="xMidYMid meet">

<g transform="translate(0.000000,1080.000000) scale(0.100000,-0.100000)"
fill="#000000" stroke="none">
<path d="M3619 6891 c-80 -26 -158 -73 -218 -132 -63 -62 -94 -110 -129 -198
-25 -64 -26 -74 -30 -326 -3 -213 -1 -273 12 -329 43 -182 164 -315 360 -395
37 -14 133 -17 891 -21 l850 -5 3 -532 2 -533 40 0 40 0 2 533 3 532 850 5
c776 5 854 7 893 22 193 78 315 212 358 395 13 55 15 117 12 328 -4 254 -5
262 -31 328 -62 158 -190 279 -345 327 -63 20 -96 20 -1786 19 -1628 0 -1724
-1 -1777 -18z m421 -450 c19 -10 48 -37 64 -59 26 -36 30 -53 34 -126 5 -97
-7 -143 -50 -192 -53 -61 -170 -79 -249 -38 -147 75 -139 363 11 423 44 17
152 13 190 -8z m240 -164 c0 -94 12 -113 73 -110 25 1 59 9 76 17 30 16 31 18
31 91 0 73 1 75 25 75 l25 0 0 -170 0 -170 -25 0 c-24 0 -25 2 -25 75 l0 74
-42 -19 c-52 -24 -99 -25 -138 -5 -42 22 -50 43 -50 134 0 80 0 81 25 81 24 0
25 -2 25 -73z m384 -72 c-1 -107 1 -136 10 -122 6 10 47 73 91 140 73 111 83
122 110 122 l30 0 3 -167 2 -168 -24 0 -25 0 -3 137 -3 137 -86 -134 c-78
-122 -89 -135 -118 -138 l-31 -3 0 171 0 171 23 -3 c22 -3 22 -5 21 -143z
m417 79 c48 -75 39 -77 106 20 24 34 39 46 58 46 14 0 25 -2 25 -5 0 -3 -22
-36 -48 -73 -27 -37 -52 -73 -56 -80 -5 -8 16 -45 53 -97 l61 -85 -29 0 c-25
0 -37 11 -77 66 l-47 67 -19 -24 c-10 -13 -31 -43 -46 -66 -21 -33 -33 -43
-54 -43 -16 0 -28 2 -28 5 0 2 25 39 55 81 30 42 55 81 55 86 0 4 -22 39 -50
77 -27 38 -50 74 -50 80 0 6 11 11 24 11 18 0 34 -15 67 -66z m629 41 c0 -24
-2 -25 -75 -25 l-75 0 0 -145 0 -145 -25 0 -25 0 0 170 0 170 100 0 100 0 0
-25z m283 -3 c20 -21 22 -34 25 -167 3 -138 3 -145 -16 -145 -12 0 -22 9 -25
21 l-6 21 -25 -20 c-58 -45 -154 -35 -181 18 -44 85 11 149 136 158 68 5 69 5
69 33 0 16 -9 38 -21 50 -18 18 -28 20 -68 15 -79 -12 -85 -12 -89 5 -8 41
161 50 201 11z m312 -2 c35 -33 34 -81 -2 -115 -15 -14 -22 -25 -15 -25 26 0
52 -40 52 -79 0 -74 -88 -114 -198 -90 -46 9 -52 14 -52 36 0 20 3 24 18 18 9
-5 45 -10 80 -13 70 -5 102 12 102 54 0 38 -26 54 -86 54 -51 0 -54 1 -54 25
0 23 4 25 46 25 60 0 84 14 84 49 0 39 -42 56 -107 45 -67 -11 -68 -11 -68 11
0 25 34 35 112 32 50 -2 67 -8 88 -27z m338 2 c20 -21 22 -34 25 -167 3 -138
3 -145 -16 -145 -12 0 -22 9 -25 21 l-6 21 -25 -20 c-58 -45 -154 -35 -181 18
-44 85 11 149 136 158 68 5 69 5 69 33 0 16 -9 38 -21 50 -18 18 -28 20 -68
15 -79 -12 -85 -12 -89 5 -8 41 161 50 201 11z m177 3 l0 -24 36 24 c75 51
168 23 199 -59 23 -59 16 -166 -12 -205 -45 -61 -142 -76 -191 -30 -12 10 -22
19 -24 19 -2 0 -2 -43 0 -95 l3 -95 -25 0 -26 0 0 245 c0 238 1 245 20 245 15
0 20 -7 20 -25z"/>
<path d="M3886 6410 c-40 -13 -63 -36 -82 -86 -19 -51 -16 -153 7 -199 48 -98
205 -100 255 -3 40 77 20 229 -36 270 -30 21 -104 31 -144 18z"/>
<path d="M5838 6154 c-22 -11 -28 -22 -28 -47 0 -44 15 -57 66 -57 35 0 47 5
68 31 15 18 26 43 26 60 0 28 -1 29 -52 29 -29 -1 -65 -8 -80 -16z"/>
<path d="M6488 6154 c-22 -11 -28 -22 -28 -47 0 -44 15 -57 66 -57 35 0 47 5
68 31 15 18 26 43 26 60 0 28 -1 29 -52 29 -29 -1 -65 -8 -80 -16z"/>
<path d="M6880 6297 c-35 -18 -50 -53 -50 -120 0 -61 18 -110 45 -121 29 -11
80 -6 102 9 41 29 54 117 27 183 -22 56 -71 76 -124 49z"/>
<path d="M5273 4312 c-98 -32 -119 -76 -55 -118 110 -75 387 -45 400 43 11 72
-207 119 -345 75z"/>
</g>
</svg>
